<?xml version="1.0" standalone="no"?>
<!DOCTYPE svg PUBLIC "-//W3C//DTD SVG 20010904//EN"
 "http://www.w3.org/TR/2001/REC-SVG-20010904/DTD/svg10.dtd">
<svg version="1.0" xmlns="http://www.w3.org/2000/svg"
 width="152.000000pt" height="152.000000pt" viewBox="0 0 152.000000 152.000000"
 preserveAspectRatio="xMidYMid meet">
<metadata>
Created by potrace 1.11, written by Peter Selinger 2001-2013
</metadata>
<g transform="translate(0.000000,152.000000) scale(0.100000,-0.100000)"
fill="#000000" stroke="none">
<path d="M0 760 l0 -760 760 0 760 0 0 760 0 760 -760 0 -760 0 0 -760z m1090
393 c0 -3 -6 -14 -13 -22 -12 -15 -72 -359 -64 -368 2 -1 20 39 40 90 20 50
61 139 89 197 l53 105 57 3 c51 3 61 0 83 -22 49 -49 25 -121 -83 -242 l-71
-79 97 -8 c128 -10 147 -24 146 -98 -1 -37 -9 -71 -27 -106 l-27 -52 33 -4
c28 -3 27 -4 -10 -5 -34 -2 -46 -8 -63 -32 -35 -49 -180 -159 -269 -203 -84
-42 -85 -42 -194 -42 -102 0 -110 1 -128 24 -27 33 -25 99 4 141 27 41 105 96
155 110 20 5 123 10 229 10 187 0 193 1 204 22 22 41 16 95 -14 125 -27 27
-30 28 -141 28 l-114 0 29 35 c91 109 161 202 173 232 27 64 -23 110 -80 74
-30 -21 -54 -68 -145 -295 -62 -154 -79 -187 -104 -202 -16 -10 -30 -17 -32
-16 -1 2 11 100 27 218 16 118 30 227 30 243 l0 28 -36 -27 c-19 -15 -38 -24
-41 -21 -9 8 -4 12 102 95 86 68 105 79 105 64z m-528 -30 c-4 -23 -2 -25 14
-19 35 14 128 36 150 36 12 0 34 -10 49 -22 27 -21 27 -23 22 -102 -6 -95 -38
-188 -78 -228 -40 -41 -105 -40 -149 2 -37 35 -35 47 4 29 37 -17 68 2 100 61
49 90 30 220 -31 220 -38 0 -92 -21 -97 -38 -3 -9 -21 -100 -41 -202 -52 -261
-101 -376 -202 -476 -46 -45 -89 -64 -144 -64 -33 0 -47 6 -74 33 -75 75 -71
192 11 354 69 137 195 260 355 347 54 30 68 42 73 66 4 21 11 30 24 30 15 0
18 -5 14 -27z"/>
<path d="M927 525 c-81 -30 -127 -82 -127 -144 0 -56 46 -81 149 -81 96 0 187
46 287 146 41 41 74 79 74 84 0 16 -337 11 -383 -5z"/>
<path d="M439 1022 c-85 -49 -216 -180 -256 -257 -63 -122 -79 -233 -44 -312
11 -23 28 -46 39 -52 29 -15 78 -14 111 3 58 30 80 84 153 374 38 151 67 276
65 278 -2 2 -32 -13 -68 -34z"/>
</g>
</svg>
